<svg version="1.2" xmlns="http://www.w3.org/2000/svg" viewBox="0 0 24 24" width="24" height="24">
	<title>email_icon-svg</title>
	<style>
		.s0 { fill: none } 
		.s1 { fill: #ffffff } 
	</style>
	<path id="Layer" class="s0" d="m0 0h24v24h-24z"/>
	<path id="Layer" fill-rule="evenodd" class="s1" d="m22 6v12c0 1.1-0.9 2-2 2h-16c-1.1 0-2-0.9-2-2v-12c0-1.1 0.9-2 2-2h16c1.1 0 2 0.9 2 2zm-2 1.5c0-0.6-0.7-1-1.3-0.7l-6.7 4.2-6.7-4.2c-0.6-0.3-1.3 0.1-1.3 0.7 0 0.3 0.2 0.6 0.4 0.8l7.1 4.4c0.3 0.2 0.7 0.2 1 0l7.1-4.5c0.3-0.1 0.4-0.4 0.4-0.7z"/>
	<path id="Shape 1" class="s1" d="m-8-1"/>
</svg>