<svg width="167.09000549316406px" height="120.8px" xmlns="http://www.w3.org/2000/svg" viewBox="166.45499725341796 14.600000000000001 167.09000549316406 120.8" style="background: rgba(0, 0, 0, 0);" preserveAspectRatio="xMidYMid"><defs><filter id="editing-offset"><feFlood flood-color="#f00" flood-opacity="0.5" result="c1"></feFlood><feFlood flood-color="#0f0" flood-opacity="0.5" result="c2"></feFlood><feFlood flood-color="#00f" flood-opacity="0.5" result="c3"></feFlood><feComposite operator="in" in="c1" in2="SourceAlpha" result="text-c1"></feComposite><feComposite operator="in" in="c2" in2="SourceAlpha" result="text-c2"></feComposite><feComposite operator="in" in="c3" in2="SourceAlpha" result="text-c3"></feComposite><feOffset in="text-c1" dx="-10" dy="0" result="text1"></feOffset><feOffset in="text-c2" dx="10" dy="0" result="text2"></feOffset><feOffset in="text-c3" dx="0" dy="0" result="text3"></feOffset><feMerge><feMergeNode in="text1"></feMergeNode><feMergeNode in="text2"></feMergeNode><feMergeNode in="text3"></feMergeNode></feMerge></filter></defs><g filter="url(#editing-offset)"><g transform="translate(195.6649956703186, 97.07999992370605)"><path d="M2.69-39.68L2.69-39.68L2.69-39.68Q3.58-41.47 5.54-42.46L5.54-42.46L5.54-42.46Q7.49-43.46 10.18-43.46L10.18-43.46L10.18-43.46Q14.40-43.46 16.93-40.42L16.93-40.42L16.93-40.42Q19.46-37.38 19.46-30.72L19.46-30.72L19.46-7.87L34.11-42.18L41.66-42.18L43.39-9.79L43.20-7.94L58.43-42.18L67.20-42.18L46.72 0L33.09 0L31.81-19.46L23.36 0L7.94 0L6.02-30.72L6.02-30.72Q5.82-34.18 4.90-36.45L4.90-36.45L4.90-36.45Q3.97-38.72 2.69-39.68ZM105.98-26.56L105.98-26.56L105.98-26.56Q105.98 0.70 76.42 0.70L76.42 0.70L76.42 0.70Q71.68 0.70 63.87-0.45L63.87-0.45L71.04-38.27L71.04-38.27Q71.55-40.83 71.87-42.30L71.87-42.30L71.87-42.30Q81.60-43.01 85.92-43.01L85.92-43.01L85.92-43.01Q90.24-43.01 94.21-42.11L94.21-42.11L94.21-42.11Q98.18-41.22 100.80-39.23L100.80-39.23L100.80-39.23Q105.98-35.33 105.98-26.56ZM92.80-28.93L92.80-28.93L92.80-28.93Q92.80-38.46 85.95-38.46L85.95-38.46L85.31-38.46L85.31-38.46Q84.99-38.46 84.67-38.40L84.67-38.40L78.08-4.03L78.08-4.03Q78.34-3.90 78.59-3.90L78.59-3.90L79.10-3.90L79.10-3.90Q81.47-3.90 83.94-5.38L83.94-5.38L83.94-5.38Q86.40-6.85 88.32-9.86L88.32-9.86L88.32-9.86Q92.80-16.83 92.80-28.93Z"></path></g></g><style>text {
  font-size: 64px;
  font-family: Arial Black;
  dominant-baseline: central;
  text-anchor: middle;
}</style></svg>